<svg width="272" height="272" viewBox="0 0 272 272" fill="none" xmlns="http://www.w3.org/2000/svg">
<path fill-rule="evenodd" clip-rule="evenodd" d="M114.46 215.98C105.588 213.597 97.479 209.951 90.2458 205.099L90.1328 205.07L90.0197 205.013L89.935 204.927L89.5959 204.697L89.4829 204.64L89.4264 204.582L89.3133 204.525L89.2569 204.468L89.1438 204.41H89.1155L89.0591 204.353L88.946 204.295L88.8896 204.238L88.7765 204.181L88.7201 204.123H88.6635L88.5222 203.979L88.4658 203.893L88.381 203.865L88.2962 203.807L88.2396 203.721H88.1549L88.0701 203.664L88.0137 203.549L87.9289 203.492H87.8442L87.7594 203.434V203.377H87.6464L87.5899 203.262L87.4486 203.204L87.4204 203.147L87.3073 203.09L87.2508 203.032L87.166 202.975L87.053 202.917L86.9683 202.86L86.7704 202.688H86.7421L86.6574 202.63L86.5445 202.544L86.4879 202.487V202.429H86.3748L86.2901 202.314L86.2053 202.257L86.1489 202.2L86.0641 202.142H86.0076L85.9511 202.085L85.8946 202.027L85.7815 201.97L85.6968 201.912L85.5272 201.74H85.4708L85.3577 201.683L85.3013 201.539L85.1882 201.51L85.1034 201.453L85.0469 201.367L84.9339 201.31L84.8774 201.252L84.7644 201.195L84.7079 201.137L84.3688 200.879L84.2558 200.822L84.058 200.678L83.9167 200.506L83.7755 200.391L83.5212 200.161L83.4646 200.104L83.1539 199.903L82.8148 199.644L82.7301 199.587L82.504 199.329L82.3627 199.185L82.2214 199.07L82.0237 198.927L81.9107 198.812L81.6281 198.611L81.2891 198.324L81.2043 198.238L80.9783 198.037L80.6958 197.778L80.4415 197.635V197.52L80.1024 197.233H80.0741L79.7916 197.003L79.7068 196.888L79.3395 196.573L79.1983 196.458L79.0005 196.257L78.8874 196.2L78.6049 195.884L78.3505 195.625L78.2376 195.511L78.0398 195.367L77.8985 195.223L77.1639 194.506L76.9096 194.247L76.8249 194.19L76.6835 193.96L76.5423 193.845L76.401 193.673L76.175 193.472L76.1185 193.415L75.836 193.156V193.099L75.5817 192.869L75.5251 192.754L75.1578 192.381L75.0166 192.266L74.8188 192.065L74.734 192.008L74.4797 191.663L74.2254 191.376L74.1689 191.319L73.9428 191.118L73.8299 190.974L73.6886 190.831L73.5191 190.601L73.4626 190.544L73.18 190.257V190.2L72.9257 189.941L72.8692 189.826L72.6714 189.683L72.5584 189.51L72.4172 189.338L72.2759 189.137L72.1628 189.08L71.9085 188.764L71.6543 188.42L71.5978 188.362L71.4282 188.132L71.2869 187.989L71.174 187.845L70.9196 187.587L70.6936 187.214L70.4393 186.898L70.3546 186.84L70.2132 186.639L70.072 186.496L69.9872 186.295L69.8177 186.094L69.7329 185.979L69.5069 185.663L69.3092 185.405L69.1961 185.261L69.0549 185.032L68.9135 184.888L68.8005 184.745L68.6593 184.544L68.6028 184.429L68.3767 184.113L68.3485 184.085L68.1224 183.797L68.066 183.683L67.8965 183.482L67.7834 183.338L67.6704 183.166L67.5291 182.879L67.4726 182.821C66.2577 181.099 65.1275 179.319 64.082 177.481C58.8549 168.323 55.4362 158.361 53.9387 147.538C52.4129 136.744 53.1193 125.95 56.0578 115.04C59.0527 103.901 63.8842 94.1406 70.5806 85.7003C77.3052 77.2026 85.2164 70.3126 94.4274 64.9154C103.582 59.5469 113.528 56.1018 124.179 54.4941C134.888 52.9439 145.766 53.6616 156.842 56.676C166.053 59.1163 174.416 62.9632 181.96 68.1882L182.017 68.2453L182.13 68.3603H182.214L182.299 68.4177L182.356 68.5039H182.384L182.44 68.5614L182.525 68.6185L182.553 68.676L182.666 68.7335H182.723L182.808 68.791L182.921 68.9059H183.006L183.09 68.963L183.147 69.0492L183.203 69.078H183.26V69.1642H183.373L183.458 69.2216L183.486 69.2791L183.571 69.3937H183.627L183.712 69.4512L183.768 69.5087H183.853L183.91 69.5662L183.994 69.6236L184.079 69.7095L184.136 69.7669H184.164L184.192 69.8244L184.277 69.8819H184.333L184.446 69.9968L184.559 70.054L184.588 70.1114L184.701 70.1689H184.729L184.842 70.2551L184.87 70.2838L184.955 70.3697L185.012 70.4272L185.04 70.4846H185.096L185.153 70.5421L185.238 70.5996H185.294L185.379 70.6571L185.435 70.7145L185.52 70.7717L185.577 70.8292L185.633 70.9153L185.831 71.0303L185.887 71.0874L185.916 71.1449H185.972L186.029 71.2024L186.17 71.3173L186.198 71.3748L186.255 71.4606H186.396L186.679 71.7193L186.763 71.7768L187.046 71.9775L187.187 72.1212L187.357 72.2646L187.583 72.4082L187.696 72.5516L187.978 72.7527L188.063 72.8102L188.346 73.011V73.0685L188.685 73.3555L188.769 73.413L188.995 73.5567L189.165 73.7287L189.306 73.8437L189.504 74.0445L189.645 74.102L189.9 74.389L189.928 74.4464L190.267 74.7334H190.295L190.55 74.9346L190.691 75.0492L190.889 75.2504L191.228 75.5374L191.397 75.7385L191.51 75.8244L191.764 76.083H191.821L192.132 76.4275L192.414 76.6858L192.527 76.7433L192.895 77.1165L193.036 77.2311L193.318 77.5185L193.601 77.7767L193.629 77.8342L193.912 78.1212L193.997 78.1787L194.223 78.3795L194.336 78.4944L194.533 78.724L194.675 78.8677L194.816 78.9823L195.042 79.2122L195.127 79.3271L195.409 79.5854V79.6429L195.974 80.2169L196.059 80.3319L196.257 80.4752L196.511 80.8197L196.765 81.0208L196.822 81.0783L197.133 81.4228L197.359 81.7385L197.415 81.796L197.613 82.0255L197.754 82.1692L197.924 82.3126L198.065 82.485L198.15 82.6283L198.404 82.9157L198.432 82.9728L198.687 83.2314L198.969 83.5759L199.054 83.6334L199.224 83.8917L199.506 84.2362L199.676 84.3795L199.76 84.5519L199.987 84.7527L200.015 84.8102L200.241 85.1547H200.297L200.523 85.4705L200.608 85.5854L200.749 85.8149L201.032 86.1311L201.173 86.3606L201.286 86.4755L201.484 86.7625L201.512 86.7913L201.738 87.1358H201.795L202.021 87.4802L202.247 87.796L202.388 87.968L202.501 88.1118L202.755 88.4562L202.953 88.772L203.207 89.1165L203.292 89.174L203.434 89.4322L203.688 89.8342L203.829 89.9779L203.942 90.15L204.112 90.4085L204.196 90.4657L204.366 90.8105C205.383 92.3608 206.372 93.9395 207.304 95.5472C212.616 104.82 216.092 114.84 217.646 125.519C219.171 136.227 218.465 147.108 215.498 158.189C212.532 169.099 207.728 178.802 200.975 187.329C194.251 195.884 186.227 202.831 176.987 208.056C167.72 213.281 157.661 216.669 146.896 218.19C136.159 219.654 125.338 218.937 114.46 215.98ZM100.53 267.311C85.8098 263.406 72.5019 257.406 60.6067 249.454L60.4655 249.339L60.3524 249.224L60.2112 249.167L60.0699 249.052L59.9286 248.995L59.7874 248.88L59.6461 248.736L59.5048 248.679L59.3635 248.564L59.2505 248.449L59.1092 248.391L58.9962 248.277L58.968 248.219L58.8549 248.162L58.7137 248.104L58.5724 247.99L58.4311 247.875L58.2899 247.817L58.1768 247.703L58.0355 247.617L57.8943 247.473L57.7531 247.358L57.64 247.243L57.4987 247.186L57.2162 246.956L57.0749 246.841L56.9619 246.784L56.8206 246.669H56.7923L56.6511 246.554L56.538 246.411L56.3968 246.325L56.2838 246.21L56.1425 246.152L56.1142 246.095L56.0012 246.038L55.86 245.923L55.7469 245.808L55.6057 245.693L55.2101 245.492V245.435L55.0688 245.32L54.9276 245.234L54.7863 245.09L54.7581 245.033L54.6732 244.975L54.532 244.86L54.3908 244.803L54.2777 244.688L54.1365 244.573L54.0234 244.458L53.8821 244.344L53.7409 244.286L53.5996 244.171L53.4866 244.028L53.3735 243.942L53.204 243.769L53.0628 243.712L52.9497 243.597L52.6672 243.367L52.5259 243.253L52.3846 243.195L52.2717 243.08L52.1303 242.966L52.0174 242.822L51.4805 242.391L51.3392 242.334L50.9719 242.018L50.6611 241.817L50.435 241.559L50.0113 241.301L49.9548 241.186L48.8811 240.325L48.768 240.181L48.3725 239.865L48.1464 239.722L47.8922 239.463L47.4966 239.147L47.3836 239.032L46.875 238.602L46.3947 238.143L46.2534 238.028L45.8578 237.712L45.3775 237.253L45.0102 236.937L44.869 236.822L44.4169 236.392H44.3886L43.9365 235.932L43.7953 235.817L43.767 235.76L43.2019 235.301L42.9476 234.985L42.5803 234.726L42.0152 234.152L41.5349 233.693L41.3936 233.578L41.0828 233.262L40.8851 232.975L39.7266 231.884L39.6701 231.827L39.1332 231.281L38.766 230.966L38.5399 230.65L38.3139 230.449L37.8901 230.018L37.4097 229.501H37.3814L36.9576 229.071L36.8446 228.927L36.5056 228.583L36.2796 228.295L35.7144 227.721L35.6297 227.664L35.1776 227.147V227.09L34.6408 226.544L34.3583 226.114L34.1039 225.913L33.9062 225.655L33.5953 225.253L33.4541 225.109L33.0585 224.678L33.0303 224.621L32.6064 224.19L32.4934 223.989L32.1544 223.673L31.9283 223.415L31.7588 223.214L31.4198 222.784L31.3632 222.669L30.9394 222.209V222.152L30.5439 221.693L30.4026 221.549L30.1483 221.233L29.9223 220.918L29.7528 220.659L29.4419 220.286L29.329 220.171L28.9051 219.683V219.597L28.5377 219.166L28.3965 219.023L28.1422 218.621L27.9444 218.334L27.7749 218.133L27.4641 217.702L27.3228 217.645L26.9555 217.071L26.56 216.611L26.4469 216.439L26.1644 216.037L25.9667 215.779L25.7971 215.578L25.5146 215.118L25.458 215.003L25.0342 214.544V214.487L24.6669 213.97L24.5256 213.827L24.2996 213.453L24.0453 213.166L23.9323 212.936L23.6215 212.506L23.5367 212.391C21.5872 209.52 19.7506 206.563 18.0553 203.577C9.38119 188.505 3.81502 172.113 1.27211 154.314C-1.21429 136.543 -0.055844 118.715 4.74743 100.859C9.69198 82.5424 17.6598 66.4942 28.6791 52.5418C39.7549 38.6469 52.7803 27.2783 67.8965 18.4073C82.9844 9.53638 99.3438 3.8235 116.918 1.32585C134.464 -1.25792 152.349 -0.0522413 170.658 4.82821C185.774 8.93354 199.534 15.2494 211.966 23.862L212.192 23.977L212.305 24.0916L212.588 24.2065V24.264L212.645 24.3502L212.758 24.4077L212.899 24.5222L213.04 24.5797L213.153 24.6372L213.238 24.7521L213.351 24.838L213.464 24.8955L213.577 25.0104L213.718 25.0679L213.803 25.1825L213.916 25.24L214.057 25.2974L214.114 25.3549L214.142 25.4124L214.283 25.4699L214.396 25.5557L214.509 25.6707L214.735 25.7856L214.877 25.9289L214.961 25.9577L215.074 26.1014L215.187 26.1588L215.329 26.2163L215.413 26.3309L215.526 26.3884L215.611 26.4458H215.64L215.781 26.5608L215.894 26.6179L216.007 26.7616L216.092 26.8191L216.205 26.934L216.346 26.9912L216.459 27.0486L216.544 27.1636L216.685 27.2498L216.798 27.3644L216.911 27.4218L216.996 27.4793L217.109 27.5943L217.25 27.6517L217.335 27.7663L217.476 27.8238L217.561 27.8813L217.702 28.0246L217.787 28.0821L217.928 28.197L218.041 28.2545L218.295 28.5415L218.437 28.599L218.493 28.6565H218.521L218.663 28.7711L218.832 28.9148L218.974 28.9722L219.058 29.1156L219.171 29.173L219.736 29.6037L219.849 29.7187L220.273 30.0344L220.471 30.264L220.81 30.4651L221.319 30.8955L221.799 31.2974L221.856 31.3549L222.421 31.7856L222.929 32.2163L223.042 32.3309L223.466 32.6757L223.692 32.9053L224.003 33.1635L224.37 33.4218L224.511 33.5943L224.964 33.9962L225.02 34.0537L225.529 34.484L225.585 34.5415L226.065 34.9722L226.207 35.1159L226.602 35.4316L227.111 35.8624L227.422 36.2068L227.591 36.3502L228.072 36.8383L228.552 37.269L228.608 37.3265L229.06 37.6997L229.202 37.8718L229.569 38.2163L229.823 38.4746L230.049 38.6757L230.417 39.0202L230.558 39.1352L231.01 39.623H231.038L231.575 40.1686L231.999 40.599L232.168 40.7427L232.479 41.0871L232.734 41.3454L232.96 41.4891L233.299 41.9198L233.383 41.9773L233.864 42.4651V42.5513H233.892L234.824 43.4698L234.994 43.671L235.276 43.958L235.729 44.5036L236.124 44.9053L236.209 45.0202L236.661 45.5084L237.085 45.9962L237.198 46.1111L237.565 46.5418L237.735 46.7426L237.989 47.03L238.271 47.3458L238.441 47.4891L238.808 47.9198L238.893 48.0347L239.317 48.5226L239.769 49.0107L239.854 49.1832L240.221 49.556L240.645 50.0442L240.927 50.4461L241.097 50.5899L241.436 51.0202L241.549 51.1351L241.945 51.6233L242.001 51.6808L242.368 52.1686L242.51 52.341L242.82 52.7142L243.216 53.2595L243.527 53.6615L243.668 53.7764L244.064 54.2643L244.092 54.3217L244.516 54.8674L244.572 54.9248L244.94 55.4127L245.335 55.9583L245.561 56.2166L245.731 56.5036L246.522 57.5946L246.946 58.1402L247.002 58.2548L247.341 58.6855L247.765 59.2311L247.935 59.5756L248.104 59.8339L248.443 60.2646L248.5 60.3792L248.895 60.9248V60.9823C250.534 63.4513 252.144 66.0061 253.67 68.6472C262.457 83.9489 268.165 100.37 270.679 117.911C273.251 135.51 272.064 153.424 267.148 171.74C262.344 189.625 254.348 205.587 243.272 219.683C232.197 233.779 219.03 245.176 203.801 253.703C188.543 262.373 172.071 267.885 154.271 270.469C136.244 273.311 118.416 272.162 100.53 267.311Z" fill="#FF0F00"/>
</svg>
